<svg width="126" height="127" viewBox="0 0 126 127" xmlns="http://www.w3.org/2000/svg"><title>ic_alarm</title><desc>Created with Sketch.</desc><g fill="none"><path d="M-12-10.965h150v149.919h-150z"/><path d="M125.5 24.766l-28.75-24.112-8.063 9.557 28.75 24.112 8.063-9.557zm-88.25-14.555l-8-9.557-28.75 24.049 8.063 9.557 28.688-24.049zm28.875 28.797h-9.375v37.48l29.688 17.803 4.688-7.683-25-14.804v-32.795zm-3.125-24.986c-31.063 0-56.25 25.174-56.25 56.219 0 31.046 25.125 56.219 56.25 56.219 31.063 0 56.25-25.174 56.25-56.219 0-31.046-25.188-56.219-56.25-56.219zm0 99.946c-24.188 0-43.75-19.552-43.75-43.726s19.563-43.726 43.75-43.726c24.188 0 43.75 19.552 43.75 43.726s-19.563 43.726-43.75 43.726z" fill="#D63D1B"/></g></svg>