<?xml version="1.0" encoding="UTF-8" standalone="no"?>
<svg width="150px" height="88px" viewBox="0 0 150 88" version="1.1" xmlns="http://www.w3.org/2000/svg" xmlns:xlink="http://www.w3.org/1999/xlink">
    <!-- Generator: Sketch 40 (33762) - http://www.bohemiancoding.com/sketch -->
    <title>ic_motorcycle</title>
    <desc>Created with Sketch.</desc>
    <defs></defs>
    <g id="Page-1-Copy" stroke="none" stroke-width="1" fill="none" fill-rule="evenodd">
        <g id="Desktop-HD" transform="translate(-1006.000000, -813.000000)">
            <g id="Group-3" transform="translate(0.000000, 658.000000)">
                <g id="Group-7" transform="translate(1006.000000, 124.705155)">
                    <g id="ic_motorcycle">
                        <polygon id="Bounds" points="0 0 150 0 150 149.296542 0 149.296542"></polygon>
                        <path d="M96.3125,31.1034463 L68.75,31.1034463 L68.75,43.5448248 L91.1875,43.5448248 L103.6875,55.9862033 L31.25,55.9862033 C13.75,55.9862033 0,69.6717196 0,87.0896495 C0,104.507579 13.75,118.193096 31.25,118.193096 C46.625,118.193096 59.0625,107.680131 61.875,93.3103388 L72.1875,93.3103388 L89.5,76.0790295 C88.1875,79.4382017 87.5,83.1706153 87.5,87.0896495 C87.5,104.507579 101.25,118.193096 118.75,118.193096 C136.25,118.193096 150,104.507579 150,87.0896495 C150,70.604823 137.6875,57.4169618 121.5,56.1728239 L96.3125,31.1034463 Z M48.875,93.3103388 C46.25,100.464131 39.25,105.751717 31.25,105.751717 C21.0625,105.751717 12.5,97.229373 12.5,87.0896495 C12.5,76.949926 21.0625,68.4275818 31.25,68.4275818 C39.25,68.4275818 46.25,73.7151676 48.875,80.8689603 L31.25,80.8689603 L31.25,93.3103388 L48.875,93.3103388 L48.875,93.3103388 Z M118.75,105.751717 C108.375,105.751717 100,97.4159937 100,87.0896495 C100,76.7633054 108.375,68.4275818 118.75,68.4275818 C129.125,68.4275818 137.5,76.7633054 137.5,87.0896495 C137.5,97.4159937 129.125,105.751717 118.75,105.751717 L118.75,105.751717 Z" id="Icon" fill="#D63D1B"></path>
                    </g>
                </g>
            </g>
        </g>
    </g>
</svg>