<?xml version="1.0" encoding="utf-8"?>
<!-- Generator: Adobe Illustrator 19.0.0, SVG Export Plug-In . SVG Version: 6.00 Build 0)  -->
<svg version="1.1" id="Слой_1" xmlns="http://www.w3.org/2000/svg" xmlns:xlink="http://www.w3.org/1999/xlink" x="0px" y="0px"
	 width="370px" height="85px" viewBox="0 0 370 85" style="enable-background:new 0 0 370 85;" xml:space="preserve">
<style type="text/css">
	.st0{fill:#FFFFFF;}
	.st1{font-family:'AA-BebasNeue';}
	.st2{font-size:68px;}
	.st3{letter-spacing:-3.1;}
	.st4{fill:#D63D1B;}
</style>
<text id="XMLID_19_" transform="matrix(0.9824 0 0 1 107.9395 60.25)" class="st0 st1 st2">МОН</text>
<text id="XMLID_18_" transform="matrix(0.9824 0 0 1 194.0977 60.25)" class="st0 st1 st2 st3">Т</text>
<text id="XMLID_17_" transform="matrix(0.9824 0 0 1 213.5498 60.25)" class="st0 st1 st2">А</text>
<text id="XMLID_15_" transform="matrix(-0.9824 0 0 1 269.0361 60.25)" class="st0 st1 st2">k</text>
<text id="XMLID_14_" transform="matrix(0.9824 0 0 1 258.2314 60.25)" class="st0 st1 st2">k</text>
<text id="XMLID_13_" transform="matrix(0.9824 0 0 1 286.0605 60.25)" class="st0 st1 st2">hиk</text>
<path id="XMLID_9_" class="st4" d="M0,85V0h97v85H0z M60.7,30.9h-5.5v4.6c-2.4-2.2-4.5-4.2-6.7-6.2C40.8,36.5,33.3,43.7,26,50.6
	c1,1.2,1.9,2.3,2.9,3.4c1.2-1.1,2.2-1.9,3.5-3.1v15.3h32.5V51c1.4,1.2,2.4,2.1,3.4,2.9c1.1-1,2.1-2,3.2-2.9
	c-0.5-0.5-0.8-0.9-1.2-1.3l-8.2-7.8c-0.9-0.8-1.3-1.7-1.3-2.9C60.7,36.4,60.7,33.8,60.7,30.9z M58.3,28.3c-0.6-3.1,0.7-5.1,2.9-7.1
	c2.1-1.9,1.9-4.7,2-7l-5.7,6C55,22.8,55.2,25.8,58.3,28.3z"/>
<path id="XMLID_5_" class="st0" d="M60.7,30.9c0,2.9,0.1,5.5,0,8.1c0,1.2,0.4,2.1,1.3,2.9c2.8,2.6,5.5,5.2,8.2,7.8
	c0.4,0.3,0.7,0.7,1.2,1.3l-3.2,2.9c-1-0.9-2-1.8-3.4-2.9v15.2H32.3V50.9C31,52.1,30,53,28.8,54.1c-0.9-1.1-1.8-2.2-2.9-3.4
	c7.3-7,14.9-14.1,22.5-21.3c2.2,2,4.3,4,6.7,6.2V31C57.1,30.9,58.8,30.9,60.7,30.9z M51.8,47.9h-6.5v6.6h6.5V47.9z M58.3,28.3
	c-3-2.4-3.3-5.5-0.8-8.1c1.9-2,3.8-4.1,5.7-6c-0.1,2.3,0,5.1-2,7C59,23.1,57.7,25.2,58.3,28.3z"/>
<path id="XMLID_4_" class="st4" d="M51.8,47.9v6.6h-6.5v-6.6H51.8z"/>
</svg>
