<svg xmlns="http://www.w3.org/2000/svg" width="394" height="85" viewBox="0 0 394 85"><style type="text/css">.abst0{fill:#FFFFFF;} .abst1{font-family:&apos;AA-BebasNeue&apos;;} .abst2{font-size:68px;} .abst3{letter-spacing:-4;} .abst4{fill:#D63D1B;}</style><text transform="matrix(.99 0 0 1 125.311 60.25)"><tspan x="0" y="0" class="abst0 abst1 abst2">МОН</tspan><tspan x="87.7" y="0" class="abst0 abst1 abst2 abst3">Т</tspan><tspan x="107.5" y="0" class="abst0 abst1 abst2">А</tspan></text><text transform="matrix(-.99 0 0 1 287.651 60.25)" class="abst0 abst1 abst2">k</text><text transform="matrix(.99 0 0 1 276.764 60.25)" class="abst0 abst1 abst2">k</text><text transform="matrix(.99 0 0 1 304.808 60.25)" class="abst0 abst1 abst2">hиk</text><path class="abst4" d="M0 85v-85h97v85h-97zm60.7-54.1h-5.5v4.6c-2.4-2.2-4.5-4.2-6.7-6.2-7.7 7.2-15.2 14.4-22.5 21.3 1 1.2 1.9 2.3 2.9 3.4 1.2-1.1 2.2-1.9 3.5-3.1v15.3h32.5v-15.2c1.4 1.2 2.4 2.1 3.4 2.9 1.1-1 2.1-2 3.2-2.9-.5-.5-.8-.9-1.2-1.3l-8.2-7.8c-.9-.8-1.3-1.7-1.3-2.9-.1-2.6-.1-5.2-.1-8.1zm-2.4-2.6c-.6-3.1.7-5.1 2.9-7.1 2.1-1.9 1.9-4.7 2-7l-5.7 6c-2.5 2.6-2.3 5.6.8 8.1z"/><path class="abst0" d="M60.7 30.9c0 2.9.1 5.5 0 8.1 0 1.2.4 2.1 1.3 2.9 2.8 2.6 5.5 5.2 8.2 7.8.4.3.7.7 1.2 1.3l-3.2 2.9c-1-.9-2-1.8-3.4-2.9v15.2h-32.5v-15.3c-1.3 1.2-2.3 2.1-3.5 3.2-.9-1.1-1.8-2.2-2.9-3.4 7.3-7 14.9-14.1 22.5-21.3 2.2 2 4.3 4 6.7 6.2v-4.6c2-.1 3.7-.1 5.6-.1zm-8.9 17h-6.5v6.6h6.5v-6.6zM58.3 28.3c-3-2.4-3.3-5.5-.8-8.1 1.9-2 3.8-4.1 5.7-6-.1 2.3 0 5.1-2 7-2.2 1.9-3.5 4-2.9 7.1z"/><path class="abst4" d="M51.8 47.9v6.6h-6.5v-6.6h6.5z"/></svg>