<?xml version="1.0" encoding="UTF-8" standalone="no"?>
<svg width="125px" height="100px" viewBox="0 0 125 100" version="1.1" xmlns="http://www.w3.org/2000/svg" xmlns:xlink="http://www.w3.org/1999/xlink">
    <!-- Generator: Sketch 40 (33762) - http://www.bohemiancoding.com/sketch -->
    <title>ic_credit_card</title>
    <desc>Created with Sketch.</desc>
    <defs></defs>
    <g id="Welcome" stroke="none" stroke-width="1" fill="none" fill-rule="evenodd">
        <g id="Desktop-HD" transform="translate(-808.000000, -990.000000)">
            <g id="#advantage" transform="translate(0.000000, 790.000000)">
                <g id="card" transform="translate(735.000000, 150.000000)">
                    <g id="ic_credit_card" transform="translate(60.000000, 0.000000)">
                        <g id="Page-1-Copy">
                            <g id="Desktop-HD">
                                <g id="Group-3">
                                    <g id="Group-4" transform="translate(0.000000, 0.035052)">
                                        <g id="ic_credit_card">
                                            <polygon id="Bounds" points="0 0 150 0 150 149.918611 0 149.918611"></polygon>
                                            <path d="M125.5,50 L25.5,50 C18.5625,50 13.0625,55.5594818 13.0625,62.4932175 L13,137.452523 C13,144.386259 18.5625,149.945741 25.5,149.945741 L125.5,149.945741 C132.4375,149.945741 138,144.386259 138,137.452523 L138,62.4932175 C138,55.5594818 132.4375,50 125.5,50 L125.5,50 L125.5,50 Z M125.5,137.452523 L25.5,137.452523 L25.5,99.9728703 L125.5,99.9728703 L125.5,137.452523 L125.5,137.452523 L125.5,137.452523 Z M125.5,74.9864351 L25.5,74.9864351 L25.5,62.4932175 L125.5,62.4932175 L125.5,74.9864351 L125.5,74.9864351 L125.5,74.9864351 Z" id="Icon" fill="#D63D1B"></path>
                                        </g>
                                    </g>
                                </g>
                            </g>
                        </g>
                    </g>
                </g>
            </g>
        </g>
    </g>
</svg>