<?xml version="1.0" encoding="UTF-8" standalone="no"?>
<svg width="133px" height="138px" viewBox="0 0 133 138" version="1.1" xmlns="http://www.w3.org/2000/svg" xmlns:xlink="http://www.w3.org/1999/xlink">
    <!-- Generator: Sketch 40 (33762) - http://www.bohemiancoding.com/sketch -->
    <title>ic_gavel</title>
    <desc>Created with Sketch.</desc>
    <defs></defs>
    <g id="Welcome" stroke="none" stroke-width="1" fill="none" fill-rule="evenodd">
        <g id="Desktop-HD" transform="translate(-501.000000, -951.000000)">
            <g id="#advantage" transform="translate(0.000000, 790.000000)">
                <g id="gavel" transform="translate(435.000000, 149.000000)">
                    <g id="ic_gavel" transform="translate(60.000000, 0.000000)">
                        <g id="Page-1-Copy">
                            <g id="Desktop-HD">
                                <g id="Group-3">
                                    <g id="Group-5" transform="translate(0.000000, 0.035052)">
                                        <g id="ic_gavel" transform="translate(0.457711, 0.000000)">
                                            <polygon id="Bounds" points="0 0 149.253731 0 149.253731 149.918611 0 149.918611"></polygon>
                                            <path d="M6.01865671,136.932176 L80.6455223,136.932176 L80.6455223,149.425393 L6.01865671,149.425393 L6.01865671,136.932176 L6.01865671,136.932176 Z M32.4179104,56.1635241 L50.0174129,38.5043611 L137.952736,126.843902 L120.365671,144.509312 L32.4179104,56.1635241 L32.4179104,56.1635241 Z M76.3980099,12 L111.578358,47.3308193 L93.9788557,65.0087222 L58.8171641,29.6529164 L76.3980099,12 L76.3980099,12 Z M23.5870646,65.0024756 L58.7674129,100.339542 L41.1803482,118.004951 L6,82.6678852 L23.5870646,65.0024756 L23.5870646,65.0024756 Z" id="Icon" fill="#D63D1B"></path>
                                        </g>
                                    </g>
                                </g>
                            </g>
                        </g>
                    </g>
                </g>
            </g>
        </g>
    </g>
</svg>