<?xml version="1.0" encoding="UTF-8" standalone="no"?>
<svg width="150px" height="88px" viewBox="0 0 150 88" version="1.1" xmlns="http://www.w3.org/2000/svg" xmlns:xlink="http://www.w3.org/1999/xlink">
    <!-- Generator: Sketch 40 (33762) - http://www.bohemiancoding.com/sketch -->
    <title>ic_motorcycle</title>
    <desc>Created with Sketch.</desc>
    <defs></defs>
    <g id="Welcome" stroke="none" stroke-width="1" fill="none" fill-rule="evenodd">
        <g id="Desktop-HD" transform="translate(-1095.000000, -1002.000000)">
            <g id="#advantage" transform="translate(0.000000, 790.000000)">
                <g id="moto" transform="translate(1035.000000, 150.000000)">
                    <g id="ic_motorcycle" transform="translate(60.000000, 0.000000)">
                        <g id="Page-1-Copy">
                            <g id="Desktop-HD">
                                <g id="Group-3">
                                    <g id="Group-7" transform="translate(0.000000, 0.705155)">
                                        <g id="ic_motorcycle">
                                            <polygon id="Bounds" points="0 0 150 0 150 149.296542 0 149.296542"></polygon>
                                            <path d="M96.3125,62 L68.75,62 L68.75,74.4413785 L91.1875,74.4413785 L103.6875,86.882757 L31.25,86.882757 C13.75,86.882757 0,100.568273 0,117.986203 C0,135.404133 13.75,149.08965 31.25,149.08965 C46.625,149.08965 59.0625,138.576685 61.875,124.206892 L72.1875,124.206892 L89.5,106.975583 C88.1875,110.334755 87.5,114.067169 87.5,117.986203 C87.5,135.404133 101.25,149.08965 118.75,149.08965 C136.25,149.08965 150,135.404133 150,117.986203 C150,101.501377 137.6875,88.3135155 121.5,87.0693776 L96.3125,62 L96.3125,62 Z M48.875,124.206893 C46.25,131.360685 39.25,136.648271 31.25,136.648271 C21.0625,136.648271 12.5,128.125927 12.5,117.986203 C12.5,107.84648 21.0625,99.3241355 31.25,99.3241355 C39.25,99.3241355 46.25,104.611721 48.875,111.765514 L31.25,111.765514 L31.25,124.206893 L48.875,124.206893 L48.875,124.206893 L48.875,124.206893 Z M118.75,136.648271 C108.375,136.648271 100,128.312547 100,117.986203 C100,107.659859 108.375,99.3241355 118.75,99.3241355 C129.125,99.3241355 137.5,107.659859 137.5,117.986203 C137.5,128.312547 129.125,136.648271 118.75,136.648271 L118.75,136.648271 L118.75,136.648271 Z" id="Icon" fill="#D63D1B"></path>
                                        </g>
                                    </g>
                                </g>
                            </g>
                        </g>
                    </g>
                </g>
            </g>
        </g>
    </g>
</svg>